<svg width="400" height="400" viewBox="0 0 400 400" xmlns="http://www.w3.org/2000/svg">
  <defs>
    <filter id="shadow" x="-50%" y="-50%" width="200%" height="200%">
      <feGaussianBlur in="SourceAlpha" stdDeviation="3"/>
      <feOffset dx="0" dy="2" result="offsetblur"/>
      <feFlood flood-color="#000" flood-opacity="0.1"/>
      <feComposite in2="offsetblur" operator="in"/>
      <feMerge>
        <feMergeNode/>
        <feMergeNode in="SourceGraphic"/>
      </feMerge>
    </filter>
  </defs>

  <circle cx="200" cy="200" r="40" fill="#007bff" filter="url(#shadow)"/>
  <path d="M190 200h20M200 190v20" stroke="#fff" stroke-width="3" stroke-linecap="round"/>
  <path d="M193 193l14 14M193 207l14-14" stroke="#fff" stroke-width="3" stroke-linecap="round"/>

  <line x1="200" y1="200" x2="100" y2="80" stroke="#ccc" stroke-width="1"/>
  <line x1="200" y1="200" x2="100" y2="150" stroke="#ccc" stroke-width="1"/>
  <line x1="200" y1="200" x2="80" y2="250" stroke="#ccc" stroke-width="1"/>
  <line x1="200" y1="200" x2="150" y2="320" stroke="#ccc" stroke-width="1"/>
  <line x1="200" y1="200" x2="250" y2="320" stroke="#ccc" stroke-width="1"/>
  <line x1="200" y1="200" x2="320" y2="250" stroke="#ccc" stroke-width="1"/>
  <line x1="200" y1="200" x2="300" y2="150" stroke="#ccc" stroke-width="1"/>
  <line x1="200" y1="200" x2="300" y2="80" stroke="#ccc" stroke-width="1"/>
  <line x1="200" y1="200" x2="200" y2="50" stroke="#ccc" stroke-width="1"/>
  <line x1="200" y1="200" x2="50" y2="200" stroke="#ccc" stroke-width="1"/>
  <line x1="200" y1="200" x2="200" y2="350" stroke="#ccc" stroke-width="1"/>
  <line x1="200" y1="200" x2="350" y2="200" stroke="#ccc" stroke-width="1"/>

  <circle cx="100" cy="80" r="15" fill="#28a745" filter="url(#shadow)"/>
  <path d="M95 80h10M100 75v10" stroke="#fff" stroke-width="2"/>

  <circle cx="100" cy="150" r="15" fill="#ffc107" filter="url(#shadow)"/>
  <rect x="92" y="142" width="16" height="16" fill="#fff" transform="rotate(45 100 150)"/>

  <circle cx="80" cy="250" r="15" fill="#17a2b8" filter="url(#shadow)"/>
  <path d="M75 250l10 5l0-10l-10 5z" fill="#fff"/>

  <circle cx="150" cy="320" r="15" fill="#6c757d" filter="url(#shadow)"/>
  <path d="M145 320h10M150 315v10" stroke="#fff" stroke-width="2" stroke-linecap="round"/>
  <path d="M147 317l6 6M147 323l6-6" stroke="#fff" stroke-width="2" stroke-linecap="round"/>

  <circle cx="250" cy="320" r="15" fill="#dc3545" filter="url(#shadow)"/>
  <path d="M245 320h10M250 315v10" stroke="#fff" stroke-width="2"/>
  <circle cx="250" cy="320" r="5" fill="#fff"/>

  <circle cx="320" cy="250" r="15" fill="#6f42c1" filter="url(#shadow)"/>
  <path d="M315 250l10 0l-5 -10l-5 10z" fill="#fff"/>

  <circle cx="300" cy="150" r="15" fill="#007bff" filter="url(#shadow)"/>
  <circle cx="300" cy="150" r="5" fill="#fff"/>
  <path d="M300 142v16" stroke="#fff" stroke-width="2" stroke-linecap="round"/>

  <circle cx="300" cy="80" r="15" fill="#ffc107" filter="url(#shadow)"/>
  <circle cx="300" cy="80" r="5" fill="#fff"/>
  <path d="M295 80h10" stroke="#fff" stroke-width="2" stroke-linecap="round"/>


  <circle cx="200" cy="50" r="15" fill="#17a2b8" filter="url(#shadow)"/>
  <rect x="195" y="45" width="10" height="10" fill="#fff" transform="rotate(45 200 50)"/>

  <circle cx="50" cy="200" r="15" fill="#28a745" filter="url(#shadow)"/>
  <path d="M45 200h10M50 195v10" stroke="#fff" stroke-width="2"/>

  <circle cx="200" cy="350" r="15" fill="#dc3545" filter="url(#shadow)"/>
  <path d="M195 350h10M200 345v10" stroke="#fff" stroke-width="2"/>

  <circle cx="350" cy="200" r="15" fill="#6f42c1" filter="url(#shadow)"/>
  <path d="M345 200l10 0l-5 -10l-5 10z" fill="#fff"/>

</svg>